<svg width="89" height="50" viewBox="0 0 89 50" fill="none" xmlns="http://www.w3.org/2000/svg">
<path d="M23.5128 16.8865C22.8328 16.8865 22.3028 16.6732 21.9228 16.2465C21.5428 15.8132 21.3528 15.2165 21.3528 14.4565C21.3528 13.7365 21.5061 13.0865 21.8128 12.5065C22.1195 11.9198 22.5428 11.4632 23.0828 11.1365C23.6228 10.8032 24.2261 10.6365 24.8928 10.6365C25.3995 10.6365 25.7928 10.7632 26.0728 11.0165C26.3595 11.2632 26.5028 11.6098 26.5028 12.0565C26.5028 12.5298 26.3328 12.9332 25.9928 13.2665C25.6528 13.5998 25.1528 13.8565 24.4928 14.0365C23.8328 14.2165 23.0328 14.3098 22.0928 14.3165L22.2128 13.7965C23.2661 13.8165 24.0895 13.6665 24.6828 13.3465C25.2828 13.0198 25.5828 12.5598 25.5828 11.9665C25.5828 11.7132 25.5061 11.5098 25.3528 11.3565C25.2061 11.2032 25.0095 11.1265 24.7628 11.1265C24.3361 11.1265 23.9428 11.2798 23.5828 11.5865C23.2228 11.8865 22.9361 12.2965 22.7228 12.8165C22.5095 13.3365 22.4028 13.9065 22.4028 14.5265C22.4028 15.0798 22.5061 15.5165 22.7128 15.8365C22.9261 16.1498 23.2161 16.3065 23.5828 16.3065C24.0361 16.3065 24.4061 16.1665 24.6928 15.8865C24.9861 15.6065 25.1461 15.2332 25.1728 14.7665C25.3995 14.7665 25.5728 14.8098 25.6928 14.8965C25.8195 14.9832 25.8828 15.1198 25.8828 15.3065C25.8828 15.5732 25.7795 15.8298 25.5728 16.0765C25.3661 16.3165 25.0795 16.5098 24.7128 16.6565C24.3528 16.8098 23.9528 16.8865 23.5128 16.8865ZM28.6674 16.8865C28.4807 16.8865 28.3407 16.8265 28.2474 16.7065C28.1541 16.5932 28.1074 16.4098 28.1074 16.1565C28.1074 15.8765 28.2041 15.2465 28.3974 14.2665C28.5974 13.2865 28.8107 12.3798 29.0374 11.5465L28.6174 11.1165C28.7841 10.9765 28.9407 10.8698 29.0874 10.7965C29.2407 10.7165 29.3774 10.6765 29.4974 10.6765C29.6574 10.6765 29.7741 10.7232 29.8474 10.8165C29.9207 10.9098 29.9574 11.0265 29.9574 11.1665C29.9574 11.3798 29.9207 11.6132 29.8474 11.8665C29.7741 12.1198 29.6674 12.4165 29.5274 12.7565L29.6274 12.8065C29.8407 12.3065 30.0641 11.8965 30.2974 11.5765C30.5307 11.2498 30.7574 11.0098 30.9774 10.8565C31.2041 10.7032 31.4174 10.6265 31.6174 10.6265C31.8174 10.6265 31.9641 10.6665 32.0574 10.7465C32.1507 10.8198 32.1974 10.9432 32.1974 11.1165C32.1974 11.3032 32.1174 11.4532 31.9574 11.5665C31.7974 11.6732 31.5941 11.7265 31.3474 11.7265C30.9874 11.7265 30.6307 11.9498 30.2774 12.3965C29.9241 12.8365 29.6341 13.4065 29.4074 14.1065C29.1874 14.8065 29.0774 15.5165 29.0774 16.2365C29.0774 16.4432 29.1107 16.5832 29.1774 16.6565C29.0241 16.8098 28.8541 16.8865 28.6674 16.8865ZM34.217 16.8865C33.857 16.8865 33.5403 16.7898 33.267 16.5965C32.9937 16.4032 32.7803 16.1298 32.627 15.7765C32.4803 15.4165 32.407 15.0032 32.407 14.5365C32.407 13.8232 32.577 13.1698 32.917 12.5765C33.257 11.9765 33.717 11.5032 34.297 11.1565C34.8837 10.8098 35.5203 10.6365 36.207 10.6365C36.5203 10.6365 36.847 10.6632 37.187 10.7165C37.267 10.8432 37.307 10.9698 37.307 11.0965C36.4937 11.0965 35.797 11.2498 35.217 11.5565C34.637 11.8565 34.197 12.2698 33.897 12.7965C33.597 13.3232 33.447 13.9232 33.447 14.5965C33.447 15.0832 33.547 15.4632 33.747 15.7365C33.947 16.0032 34.2303 16.1365 34.597 16.1365C35.2437 16.1365 35.7803 15.7165 36.207 14.8765C36.6403 14.0365 36.9637 12.7765 37.177 11.0965C37.2237 11.0365 37.2937 10.9865 37.387 10.9465C37.4803 10.9065 37.567 10.8865 37.647 10.8865C37.8003 10.8865 37.9203 10.9198 38.007 10.9865C38.0937 11.0465 38.137 11.1365 38.137 11.2565C38.137 11.4165 38.117 11.5998 38.077 11.8065C38.037 12.0065 37.9637 12.3298 37.857 12.7765C37.6903 13.4832 37.5603 14.0965 37.467 14.6165C37.3737 15.1365 37.327 15.6765 37.327 16.2365C37.327 16.4232 37.3737 16.5632 37.467 16.6565C37.3137 16.8098 37.1437 16.8865 36.957 16.8865C36.7637 16.8865 36.6137 16.8232 36.507 16.6965C36.4003 16.5698 36.347 16.3832 36.347 16.1365C36.347 15.9632 36.3737 15.7432 36.427 15.4765L36.327 15.4265C36.0803 15.8932 35.7703 16.2532 35.397 16.5065C35.0303 16.7598 34.637 16.8865 34.217 16.8865ZM42.1175 16.6365C41.7641 16.6365 41.4341 16.6098 41.1275 16.5565C41.0475 16.4232 41.0075 16.2965 41.0075 16.1765C41.7808 16.1765 42.4608 16.0432 43.0475 15.7765C43.6341 15.5098 44.0841 15.1332 44.3975 14.6465C44.7175 14.1532 44.8775 13.5798 44.8775 12.9265C44.8775 12.4398 44.7741 12.0598 44.5675 11.7865C44.3675 11.5132 44.0841 11.3765 43.7175 11.3765C43.3508 11.3765 43.0175 11.5432 42.7175 11.8765C42.4175 12.2032 42.1475 12.6898 41.9075 13.3365C41.6675 13.9765 41.4441 14.7798 41.2375 15.7465L41.5475 11.8965L41.9875 12.2965C42.2341 11.7698 42.5408 11.3632 42.9075 11.0765C43.2808 10.7832 43.6775 10.6365 44.0975 10.6365C44.4575 10.6365 44.7741 10.7332 45.0475 10.9265C45.3208 11.1198 45.5308 11.3965 45.6775 11.7565C45.8308 12.1098 45.9075 12.5198 45.9075 12.9865C45.9075 13.6465 45.7375 14.2565 45.3975 14.8165C45.0575 15.3765 44.5975 15.8198 44.0175 16.1465C43.4375 16.4732 42.8041 16.6365 42.1175 16.6365ZM40.6375 18.6365C40.4775 18.6365 40.3541 18.5732 40.2675 18.4465C40.1808 18.3265 40.1375 18.1465 40.1375 17.9065C40.1375 17.6465 40.2341 16.8832 40.4275 15.6165C40.6208 14.3498 40.8541 12.9498 41.1275 11.4165L40.7175 10.9865C40.8375 10.8865 40.9908 10.8032 41.1775 10.7365C41.3641 10.6698 41.5341 10.6365 41.6875 10.6365C41.8475 10.6365 41.9608 10.6765 42.0275 10.7565C42.0941 10.8298 42.1275 10.9598 42.1275 11.1465C42.1275 11.2665 42.0975 11.4632 42.0375 11.7365C41.9841 12.0032 41.9208 12.2965 41.8475 12.6165C41.6141 13.6632 41.4275 14.5965 41.2875 15.4165C41.1541 16.2298 41.0875 17.0665 41.0875 17.9265C41.0875 18.0198 41.1041 18.1165 41.1375 18.2165C41.1775 18.3165 41.2208 18.3798 41.2675 18.4065C41.1875 18.4798 41.0941 18.5365 40.9875 18.5765C40.8808 18.6165 40.7641 18.6365 40.6375 18.6365ZM48.4323 16.8865C48.2523 16.8865 48.1157 16.8398 48.0223 16.7465C47.929 16.6598 47.8823 16.5132 47.8823 16.3065C47.8823 16.0265 47.9457 15.5265 48.0723 14.8065C48.2057 14.0798 48.4457 12.9398 48.7923 11.3865L48.3823 10.9765C48.509 10.8698 48.659 10.7865 48.8323 10.7265C49.0057 10.6665 49.1623 10.6365 49.3023 10.6365C49.4823 10.6365 49.609 10.6732 49.6823 10.7465C49.7623 10.8198 49.8023 10.9498 49.8023 11.1365C49.7957 11.1898 49.7757 11.2798 49.7423 11.4065C49.7157 11.5332 49.679 11.6865 49.6323 11.8665C49.4123 12.7532 49.2257 13.5765 49.0723 14.3365C48.9257 15.0898 48.8523 15.7232 48.8523 16.2365C48.8523 16.4432 48.899 16.5865 48.9923 16.6665C48.8257 16.8132 48.639 16.8865 48.4323 16.8865ZM49.3923 9.7065C49.2057 9.7065 49.0557 9.66317 48.9423 9.5765C48.8357 9.48317 48.7823 9.35984 48.7823 9.2065C48.7823 9.09984 48.8123 8.9965 48.8723 8.8965C48.9323 8.78984 49.019 8.70317 49.1323 8.63651C49.2523 8.56984 49.3957 8.5365 49.5623 8.5365C49.7557 8.5365 49.9057 8.58317 50.0123 8.6765C50.119 8.76984 50.1723 8.88984 50.1723 9.0365C50.1723 9.22317 50.099 9.38317 49.9523 9.51651C49.8123 9.64317 49.6257 9.7065 49.3923 9.7065ZM53.2893 16.8865C52.9293 16.8865 52.6126 16.7898 52.3393 16.5965C52.0659 16.4032 51.8526 16.1298 51.6993 15.7765C51.5526 15.4165 51.4793 15.0032 51.4793 14.5365C51.4793 13.8232 51.6493 13.1698 51.9893 12.5765C52.3293 11.9765 52.7893 11.5032 53.3693 11.1565C53.9559 10.8098 54.5926 10.6365 55.2793 10.6365C55.5926 10.6365 55.9193 10.6632 56.2593 10.7165C56.3393 10.8432 56.3793 10.9698 56.3793 11.0965C55.5659 11.0965 54.8693 11.2498 54.2893 11.5565C53.7093 11.8565 53.2693 12.2698 52.9693 12.7965C52.6693 13.3232 52.5193 13.9232 52.5193 14.5965C52.5193 15.0832 52.6193 15.4632 52.8193 15.7365C53.0193 16.0032 53.3026 16.1365 53.6693 16.1365C54.3159 16.1365 54.8526 15.7165 55.2793 14.8765C55.7126 14.0365 56.0359 12.7765 56.2493 11.0965C56.2959 11.0365 56.3659 10.9865 56.4593 10.9465C56.5526 10.9065 56.6393 10.8865 56.7193 10.8865C56.8726 10.8865 56.9926 10.9198 57.0793 10.9865C57.1659 11.0465 57.2093 11.1365 57.2093 11.2565C57.2093 11.4165 57.1893 11.5998 57.1493 11.8065C57.1093 12.0065 57.0359 12.3298 56.9293 12.7765C56.7626 13.4832 56.6326 14.0965 56.5393 14.6165C56.4459 15.1365 56.3993 15.6765 56.3993 16.2365C56.3993 16.4232 56.4459 16.5632 56.5393 16.6565C56.3859 16.8098 56.2159 16.8865 56.0293 16.8865C55.8359 16.8865 55.6859 16.8232 55.5793 16.6965C55.4726 16.5698 55.4193 16.3832 55.4193 16.1365C55.4193 15.9632 55.4459 15.7432 55.4993 15.4765L55.3993 15.4265C55.1526 15.8932 54.8426 16.2532 54.4693 16.5065C54.1026 16.7598 53.7093 16.8865 53.2893 16.8865Z" fill="#319517"/>
<path d="M30.7675 35.3502C30.7675 33.8302 31.1915 32.6142 32.0395 31.7022C32.8875 30.7822 34.0475 30.3222 35.5195 30.3222C35.9915 30.3222 36.3275 30.4182 36.5275 30.6102C36.7355 30.7942 36.8395 31.0822 36.8395 31.4742C36.8395 31.5302 36.8315 31.6382 36.8155 31.7982C37.1115 31.5582 37.4395 31.4382 37.7995 31.4382C38.2875 31.4382 38.7035 31.6582 39.0475 32.0982C39.3995 32.5302 39.5755 33.1582 39.5755 33.9822C39.5755 34.8062 39.4435 35.5622 39.1795 36.2502C38.9155 36.9382 38.5635 37.5022 38.1235 37.9422C37.6915 38.3822 37.1955 38.7222 36.6355 38.9622C36.0835 39.2022 35.5115 39.3222 34.9195 39.3222C33.6395 39.3222 32.6275 38.9582 31.8835 38.2302C31.1395 37.4942 30.7675 36.5342 30.7675 35.3502ZM36.7555 35.9142C36.2435 35.2902 35.9875 34.6182 35.9875 33.8982C35.9875 33.1782 36.1475 32.5982 36.4675 32.1582C36.3235 32.1342 36.1795 32.1222 36.0355 32.1222C35.4675 32.1222 34.9755 32.2942 34.5595 32.6382C33.7755 33.2782 33.3835 34.1662 33.3835 35.3022C33.3835 35.9502 33.5275 36.4902 33.8155 36.9222C34.1035 37.3542 34.5035 37.5702 35.0155 37.5702C35.4075 37.5702 35.7635 37.4182 36.0835 37.1142C36.4115 36.8022 36.6355 36.4022 36.7555 35.9142ZM41.9445 39.3342C41.4165 39.3342 41.0405 39.1862 40.8165 38.8902C40.5925 38.5862 40.4805 38.1382 40.4805 37.5462C40.4805 36.9462 40.7325 35.2542 41.2365 32.4702L40.6005 31.1862C41.5045 30.6022 42.3285 30.3102 43.0725 30.3102C43.6885 30.3102 43.9965 30.6862 43.9965 31.4382C43.9965 31.6622 43.8405 32.5982 43.5285 34.2462C43.2245 35.8942 43.0725 36.9422 43.0725 37.3902H44.3685C44.9765 37.3022 45.5885 37.1462 46.2045 36.9222C46.2525 37.0662 46.2765 37.2622 46.2765 37.5102C46.2765 37.9822 46.1365 38.4022 45.8565 38.7702C45.5845 39.1382 45.2045 39.3222 44.7165 39.3222C44.3885 39.3222 43.8205 39.2342 43.0125 39.0582C42.6765 39.2422 42.3205 39.3342 41.9445 39.3342ZM48.5784 39.3342C48.0584 39.3342 47.6864 39.1862 47.4624 38.8902C47.2384 38.5862 47.1264 38.1382 47.1264 37.5462C47.1264 36.9462 47.3784 35.2542 47.8824 32.4702L47.2464 31.1862C48.1504 30.6022 48.9744 30.3102 49.7184 30.3102C50.3344 30.3102 50.6424 30.6862 50.6424 31.4382C50.6424 31.6862 50.4864 32.6102 50.1744 34.2102C49.8704 35.8022 49.7184 36.7502 49.7184 37.0542C49.7184 37.8302 49.8384 38.4102 50.0784 38.7942C49.5984 39.1542 49.0984 39.3342 48.5784 39.3342ZM47.9184 29.9862C47.7424 29.9862 47.5904 29.9142 47.4624 29.7702C47.3424 29.6182 47.2704 29.3862 47.2464 29.0742C47.5904 28.9942 47.9704 28.7942 48.3864 28.4742C48.8104 28.1542 49.2104 27.8622 49.5864 27.5982C49.9704 27.3262 50.3104 27.1902 50.6064 27.1902C51.0544 27.1902 51.2784 27.5702 51.2784 28.3302C51.2784 28.6422 51.2384 28.9342 51.1584 29.2062C51.0464 29.1902 50.9544 29.1822 50.8824 29.1822C50.5144 29.1822 50.0104 29.3182 49.3704 29.5902C48.7384 29.8542 48.2544 29.9862 47.9184 29.9862ZM55.9668 30.3222C57.0228 30.3222 57.8148 30.4462 58.3428 30.6942C58.8708 30.9342 59.1348 31.3222 59.1348 31.8582C59.1348 32.3862 58.9708 32.7902 58.6428 33.0702C58.3228 33.3422 57.9548 33.4782 57.5388 33.4782C57.1228 33.4782 56.7468 33.3742 56.4108 33.1662C56.0828 32.9502 55.8548 32.6662 55.7268 32.3142C55.4308 32.3142 55.1468 32.4142 54.8748 32.6142C54.6108 32.8062 54.4428 33.0582 54.3708 33.3702C55.9548 33.7542 57.0908 34.2022 57.7788 34.7142C58.4668 35.2262 58.8108 35.8822 58.8108 36.6822C58.8108 37.4822 58.4468 38.1222 57.7188 38.6022C56.9988 39.0822 56.0228 39.3222 54.7908 39.3222C53.5668 39.3222 52.6988 39.1542 52.1868 38.8182C51.6748 38.4822 51.4188 38.0382 51.4188 37.4862C51.4188 36.9342 51.5908 36.4262 51.9348 35.9622C52.1028 36.3222 52.4228 36.6462 52.8948 36.9342C53.3748 37.2222 53.8468 37.3662 54.3108 37.3662C55.1668 37.3662 55.7108 37.0942 55.9428 36.5502C54.6148 36.3742 53.6028 36.0062 52.9068 35.4462C52.2108 34.8782 51.8628 34.1942 51.8628 33.3942C51.8628 32.8582 52.0068 32.3822 52.2948 31.9662C52.5828 31.5422 52.9508 31.2182 53.3988 30.9942C54.2788 30.5462 55.1348 30.3222 55.9668 30.3222ZM59.4165 32.3982C59.4165 31.7502 59.5845 31.2622 59.9205 30.9342C60.2565 30.6062 60.6565 30.4422 61.1205 30.4422C61.5925 30.4422 62.2325 30.5222 63.0405 30.6822C63.8485 30.8422 64.4565 30.9262 64.8645 30.9342C65.5445 30.8062 66.1925 30.6502 66.8085 30.4662C66.8725 30.6742 66.9045 30.9342 66.9045 31.2462C66.9045 31.8942 66.7165 32.3822 66.3405 32.7102C65.9725 33.0382 65.5005 33.2022 64.9245 33.2022C64.7805 33.2022 64.5885 33.1942 64.3485 33.1782C63.9085 35.4902 63.6885 36.7822 63.6885 37.0542C63.6885 37.8302 63.8085 38.4102 64.0485 38.7942C63.5685 39.1542 63.0685 39.3342 62.5485 39.3342C62.0285 39.3342 61.6565 39.1862 61.4325 38.8902C61.2085 38.5862 61.0965 38.1382 61.0965 37.5462C61.0965 36.9462 61.3285 35.3542 61.7925 32.7702C60.8885 32.8902 60.1285 33.0262 59.5125 33.1782C59.4485 32.9782 59.4165 32.7182 59.4165 32.3982ZM68.6292 39.3342C68.1092 39.3342 67.7372 39.1862 67.5132 38.8902C67.2892 38.5862 67.1772 38.1382 67.1772 37.5462C67.1772 36.9462 67.4292 35.2542 67.9332 32.4702L67.2972 31.1862C68.2012 30.6022 69.0252 30.3102 69.7692 30.3102C70.3852 30.3102 70.6932 30.6862 70.6932 31.4382C70.6932 31.6862 70.5372 32.6102 70.2252 34.2102C69.9212 35.8022 69.7692 36.7502 69.7692 37.0542C69.7692 37.8302 69.8892 38.4102 70.1292 38.7942C69.6492 39.1542 69.1492 39.3342 68.6292 39.3342ZM71.4096 35.3382C71.4096 34.7782 71.5296 34.2102 71.7696 33.6342C72.0096 33.0502 72.3496 32.5102 72.7896 32.0142C73.2296 31.5182 73.8016 31.1142 74.5056 30.8022C75.2176 30.4822 75.9496 30.3222 76.7016 30.3222C77.4616 30.3222 78.0536 30.4622 78.4776 30.7422C78.9096 31.0222 79.1256 31.4102 79.1256 31.9062C79.1256 32.4022 78.9616 32.7902 78.6336 33.0702C78.3136 33.3422 77.9456 33.4782 77.5296 33.4782C77.1136 33.4782 76.7376 33.3902 76.4016 33.2142C76.0736 33.0302 75.8096 32.7702 75.6096 32.4342C75.1776 32.6422 74.8056 33.0502 74.4936 33.6582C74.1816 34.2662 74.0256 34.8782 74.0256 35.4942C74.0256 36.1022 74.1256 36.5862 74.3256 36.9462C74.5256 37.2982 74.8096 37.4742 75.1776 37.4742C75.5456 37.4742 75.8696 37.2862 76.1496 36.9102C76.4376 36.5342 76.5816 36.0822 76.5816 35.5542C77.3896 35.5542 77.9656 35.6182 78.3096 35.7462C78.6616 35.8742 78.8376 36.1502 78.8376 36.5742C78.8376 37.2382 78.4776 37.8622 77.7576 38.4462C77.0376 39.0302 76.1336 39.3222 75.0456 39.3222C73.9576 39.3222 73.0776 38.9862 72.4056 38.3142C71.7416 37.6422 71.4096 36.6502 71.4096 35.3382ZM86.861 32.0862L86.765 34.9422C86.765 35.9262 86.845 36.7542 87.005 37.4262C87.173 38.0982 87.481 38.5622 87.929 38.8182C87.377 39.1622 86.817 39.3342 86.249 39.3342C85.249 39.3342 84.633 38.5262 84.401 36.9102H81.953C81.801 37.4302 81.725 37.8302 81.725 38.1102C81.725 38.3822 81.757 38.6022 81.821 38.7702C81.229 39.1462 80.701 39.3342 80.237 39.3342C79.525 39.3342 79.169 38.9022 79.169 38.0382C79.169 37.6062 79.301 37.0622 79.565 36.4062C79.837 35.7502 80.193 34.9982 80.633 34.1502C81.081 33.3022 81.365 32.7422 81.485 32.4702C81.397 32.0382 81.297 31.6142 81.185 31.1982C81.601 30.9102 82.001 30.6942 82.385 30.5502C82.777 30.3982 83.197 30.3222 83.645 30.3222C84.101 30.3222 84.417 30.4222 84.593 30.6222C85.049 30.4222 85.425 30.3222 85.721 30.3222C86.017 30.3222 86.237 30.3702 86.381 30.4662C86.525 30.5622 86.629 30.7022 86.693 30.8862C86.805 31.2062 86.861 31.6062 86.861 32.0862ZM84.449 32.3622H84.065C83.345 33.7542 82.809 34.8502 82.457 35.6502H84.317C84.317 34.7782 84.361 33.6822 84.449 32.3622Z" fill="#319517"/>
<path d="M3.28406 0.636511C1.62721 0.636511 0.284064 1.97966 0.284064 3.63651C0.284064 5.29337 1.62721 6.63651 3.28406 6.63651V0.636511ZM3.28406 6.63651H22.7499V0.636511H3.28406V6.63651Z" fill="#319517"/>
<path d="M56.34 6.63651C57.9969 6.63651 59.34 5.29337 59.34 3.63651C59.34 1.97966 57.9969 0.636511 56.34 0.636511V6.63651ZM10.7499 6.63651H56.34V0.636511H10.7499V6.63651Z" fill="#319517"/>
<path d="M85.6719 49.8023C87.3287 49.8023 88.6719 48.4592 88.6719 46.8023C88.6719 45.1455 87.3287 43.8023 85.6719 43.8023V49.8023ZM35.1123 49.8023H85.6719V43.8023H35.1123V49.8023Z" fill="#319517"/>
<path d="M13.0544 33.3576H27.3297" stroke="#319517" stroke-width="6"/>
<path d="M15.8036 0.629761L15.8036 49.7562" stroke="#319517" stroke-width="6"/>
<path d="M24.8297 20.687L24.8297 33.3575" stroke="#319517" stroke-width="6"/>
<path d="M36.1865 49.8003C37.8432 49.7759 39.1663 48.413 39.1419 46.7564C39.1174 45.0997 37.7546 43.7765 36.0979 43.801L36.1865 49.8003ZM21.8297 30.4131C21.8297 33.8185 22.1238 38.5274 23.9971 42.4511C24.9589 44.4656 26.3811 46.3689 28.4708 47.7446C30.5762 49.1307 33.1535 49.8451 36.1865 49.8003L36.0979 43.801C34.0889 43.8306 32.7311 43.3658 31.77 42.7331C30.7932 42.09 30.0175 41.1351 29.4117 39.8661C28.1497 37.2227 27.8297 33.6635 27.8297 30.4131H21.8297Z" fill="#319517"/>
</svg>
